<?xml version="1.0" encoding="UTF-8" standalone="no"?>
<!DOCTYPE svg PUBLIC "-//W3C//DTD SVG 1.1//EN"
 "http://www.w3.org/Graphics/SVG/1.1/DTD/svg11.dtd">
<!-- Generated by graphviz version 2.43.0 (0)
 -->
<!-- Title: %3 Pages: 1 -->
<svg width="720pt" height="94pt"
 viewBox="0.00 0.00 720.00 94.15" xmlns="http://www.w3.org/2000/svg" xmlns:xlink="http://www.w3.org/1999/xlink">
<g id="graph0" class="graph" transform="scale(0.23 0.23) rotate(0) translate(4 398.5)">
<title>%3</title>
<polygon fill="white" stroke="transparent" points="-4,4 -4,-398.5 3074,-398.5 3074,4 -4,4"/>
<g id="clust1" class="cluster">
<title>cluster_presentation</title>
<polygon fill="none" stroke="blue" points="74.5,-180 74.5,-303 1104,-303 1104,-180 74.5,-180"/>
<text text-anchor="middle" x="589.25" y="-287.8" font-family="Times,serif" font-size="14.00">Presentation Layer (UI)</text>
</g>
<g id="clust2" class="cluster">
<title>cluster_server</title>
<polygon fill="none" stroke="green" points="898,-35 898,-172 1747,-172 1747,-35 898,-35"/>
<text text-anchor="middle" x="1322.5" y="-156.8" font-family="Times,serif" font-size="14.00">Server Layer</text>
</g>
<g id="clust3" class="cluster">
<title>cluster_service</title>
<polygon fill="none" stroke="purple" points="1967,-33 1967,-156 2144,-156 2144,-33 1967,-33"/>
<text text-anchor="middle" x="2055.5" y="-140.8" font-family="Times,serif" font-size="14.00">Service / Helper Layer</text>
</g>
<g id="clust4" class="cluster">
<title>cluster_dao</title>
<polygon fill="none" stroke="orange" points="2350.5,-221 2350.5,-344 3024.5,-344 3024.5,-221 2350.5,-221"/>
<text text-anchor="middle" x="2687.5" y="-328.8" font-family="Times,serif" font-size="14.00">Data Access Layer</text>
</g>
<g id="clust5" class="cluster">
<title>cluster_external</title>
<polygon fill="none" stroke="red" points="2744,-8 2744,-213 3062,-213 3062,-8 2744,-8"/>
<text text-anchor="middle" x="2903" y="-197.8" font-family="Times,serif" font-size="14.00">Persistent Storage &amp; External Services</text>
</g>
<!-- Browser -->
<g id="node1" class="node">
<title>Browser</title>
<polygon fill="#e8f6ff" stroke="black" points="246.5,-237 82.5,-237 82.5,-199 246.5,-199 246.5,-237"/>
<text text-anchor="middle" x="164.5" y="-221.8" font-family="Times,serif" font-size="14.00">Browser / UI</text>
<text text-anchor="middle" x="164.5" y="-206.8" font-family="Times,serif" font-size="14.00">(JSP, HTML, CSS, JS)</text>
</g>
<!-- JSPs -->
<g id="node3" class="node">
<title>JSPs</title>
<polygon fill="#d6eaf8" stroke="black" points="723.5,-271.5 601.5,-271.5 601.5,-267.5 597.5,-267.5 597.5,-263.5 601.5,-263.5 601.5,-196.5 597.5,-196.5 597.5,-192.5 601.5,-192.5 601.5,-188.5 723.5,-188.5 723.5,-271.5"/>
<polyline fill="none" stroke="black" points="601.5,-267.5 605.5,-267.5 605.5,-263.5 601.5,-263.5 "/>
<polyline fill="none" stroke="black" points="601.5,-196.5 605.5,-196.5 605.5,-192.5 601.5,-192.5 "/>
<text text-anchor="middle" x="662.5" y="-256.3" font-family="Times,serif" font-size="14.00">JSP Pages</text>
<text text-anchor="middle" x="662.5" y="-241.3" font-family="Times,serif" font-size="14.00">/login.jsp</text>
<text text-anchor="middle" x="662.5" y="-226.3" font-family="Times,serif" font-size="14.00">/dashboard.jsp</text>
<text text-anchor="middle" x="662.5" y="-211.3" font-family="Times,serif" font-size="14.00">/exam.jsp</text>
<text text-anchor="middle" x="662.5" y="-196.3" font-family="Times,serif" font-size="14.00">/register.jsp</text>
</g>
<!-- Browser&#45;&gt;JSPs -->
<g id="edge1" class="edge">
<title>Browser&#45;&gt;JSPs</title>
<path fill="none" stroke="black" d="M246.57,-219.96C342.44,-222.28 500.44,-226.1 591.3,-228.3"/>
<polygon fill="black" stroke="black" points="591.42,-231.81 601.5,-228.55 591.58,-224.81 591.42,-231.81"/>
<text text-anchor="middle" x="452.5" y="-230.8" font-family="Times,serif" font-size="14.00">HTTP Request / Form Submit</text>
</g>
<!-- Tomcat -->
<g id="node4" class="node">
<title>Tomcat</title>
<polygon fill="#fef9e7" stroke="black" points="1146,-141 906,-141 906,-103 1146,-103 1146,-141"/>
<text text-anchor="middle" x="1026" y="-125.8" font-family="Times,serif" font-size="14.00">Web Server / Servlet Container</text>
<text text-anchor="middle" x="1026" y="-110.8" font-family="Times,serif" font-size="14.00">(Tomcat)</text>
</g>
<!-- Browser&#45;&gt;Tomcat -->
<g id="edge11" class="edge">
<title>Browser&#45;&gt;Tomcat</title>
<path fill="none" stroke="black" stroke-dasharray="5,2" d="M246.8,-206.7C329.55,-195.39 461.57,-177.86 576,-165 683.52,-152.91 805.78,-141.35 895.54,-133.26"/>
<polygon fill="black" stroke="black" points="896.13,-136.72 905.78,-132.34 895.5,-129.75 896.13,-136.72"/>
<text text-anchor="middle" x="662.5" y="-168.8" font-family="Times,serif" font-size="14.00">Static requests (CSS/JS)</text>
</g>
<!-- Static -->
<g id="node2" class="node">
<title>Static</title>
<polygon fill="#f6f8fb" stroke="black" points="1090,-249 956,-249 956,-211 1096,-211 1096,-243 1090,-249"/>
<polyline fill="none" stroke="black" points="1090,-249 1090,-243 "/>
<polyline fill="none" stroke="black" points="1096,-243 1090,-243 "/>
<text text-anchor="middle" x="1026" y="-233.8" font-family="Times,serif" font-size="14.00">Static Assets</text>
<text text-anchor="middle" x="1026" y="-218.8" font-family="Times,serif" font-size="14.00">(CSS, JS, Images)</text>
</g>
<!-- JSPs&#45;&gt;Static -->
<g id="edge2" class="edge">
<title>JSPs&#45;&gt;Static</title>
<path fill="none" stroke="black" d="M723.6,-230C784.42,-230 878.79,-230 945.71,-230"/>
<polygon fill="black" stroke="black" points="945.79,-233.5 955.79,-230 945.79,-226.5 945.79,-233.5"/>
<text text-anchor="middle" x="827.5" y="-233.8" font-family="Times,serif" font-size="14.00">Includes / Assets</text>
</g>
<!-- JSPs&#45;&gt;Tomcat -->
<g id="edge10" class="edge">
<title>JSPs&#45;&gt;Tomcat</title>
<path fill="none" stroke="black" d="M723.6,-212.04C786.17,-193.35 884.25,-164.05 951.42,-143.98"/>
<polygon fill="black" stroke="black" points="952.52,-147.31 961.1,-141.09 950.52,-140.6 952.52,-147.31"/>
<text text-anchor="middle" x="827.5" y="-201.8" font-family="Times,serif" font-size="14.00">HTTP POST/GET</text>
</g>
<!-- Filters -->
<g id="node5" class="node">
<title>Filters</title>
<polygon fill="#fdedec" stroke="black" points="1415,-137 1412,-141 1391,-141 1388,-137 1268,-137 1268,-69 1415,-69 1415,-137"/>
<text text-anchor="middle" x="1341.5" y="-121.8" font-family="Times,serif" font-size="14.00">Filters</text>
<text text-anchor="middle" x="1341.5" y="-106.8" font-family="Times,serif" font-size="14.00">AdminFilter</text>
<text text-anchor="middle" x="1341.5" y="-91.8" font-family="Times,serif" font-size="14.00">StudentFilter</text>
<text text-anchor="middle" x="1341.5" y="-76.8" font-family="Times,serif" font-size="14.00">CurrentUserFilter</text>
</g>
<!-- Tomcat&#45;&gt;Filters -->
<g id="edge3" class="edge">
<title>Tomcat&#45;&gt;Filters</title>
<path fill="none" stroke="black" d="M1146.42,-114.76C1183.42,-112.52 1223.38,-110.1 1257.36,-108.04"/>
<polygon fill="black" stroke="black" points="1257.94,-111.51 1267.71,-107.41 1257.52,-104.52 1257.94,-111.51"/>
<text text-anchor="middle" x="1207" y="-116.8" font-family="Times,serif" font-size="14.00">Filter Chain</text>
</g>
<!-- Servlets -->
<g id="node6" class="node">
<title>Servlets</title>
<polygon fill="#e8f8f5" stroke="black" points="1739,-141 1736,-145 1715,-145 1712,-141 1569,-141 1569,-43 1739,-43 1739,-141"/>
<text text-anchor="middle" x="1654" y="-125.8" font-family="Times,serif" font-size="14.00">Servlets / Controllers</text>
<text text-anchor="middle" x="1654" y="-110.8" font-family="Times,serif" font-size="14.00">LoginServlet</text>
<text text-anchor="middle" x="1654" y="-95.8" font-family="Times,serif" font-size="14.00">RegisterServlet</text>
<text text-anchor="middle" x="1654" y="-80.8" font-family="Times,serif" font-size="14.00">ExamServlet</text>
<text text-anchor="middle" x="1654" y="-65.8" font-family="Times,serif" font-size="14.00">QuestionServlet</text>
<text text-anchor="middle" x="1654" y="-50.8" font-family="Times,serif" font-size="14.00">ResultServlet</text>
</g>
<!-- Filters&#45;&gt;Servlets -->
<g id="edge4" class="edge">
<title>Filters&#45;&gt;Servlets</title>
<path fill="none" stroke="black" d="M1415.3,-100.42C1458.13,-98.9 1512.76,-96.97 1558.85,-95.34"/>
<polygon fill="black" stroke="black" points="1558.98,-98.83 1568.85,-94.98 1558.73,-91.84 1558.98,-98.83"/>
<text text-anchor="middle" x="1492" y="-102.8" font-family="Times,serif" font-size="14.00">Role/Auth Check</text>
</g>
<!-- ServiceLayer -->
<g id="node7" class="node">
<title>ServiceLayer</title>
<polygon fill="#f5eef8" stroke="black" points="2134,-124.5 1976,-124.5 1976,-41.5 2134,-41.5 2134,-124.5"/>
<text text-anchor="middle" x="2055" y="-109.3" font-family="Times,serif" font-size="14.00">Service / Helpers</text>
<text text-anchor="middle" x="2055" y="-94.3" font-family="Times,serif" font-size="14.00">GEmailSender</text>
<text text-anchor="middle" x="2055" y="-79.3" font-family="Times,serif" font-size="14.00">ConnectionProvider</text>
<text text-anchor="middle" x="2055" y="-64.3" font-family="Times,serif" font-size="14.00">Utils</text>
<text text-anchor="middle" x="2055" y="-49.3" font-family="Times,serif" font-size="14.00">PinGenerator</text>
</g>
<!-- Servlets&#45;&gt;ServiceLayer -->
<g id="edge5" class="edge">
<title>Servlets&#45;&gt;ServiceLayer</title>
<path fill="none" stroke="black" d="M1739.13,-90.1C1805.57,-88.6 1898.01,-86.52 1965.55,-85"/>
<polygon fill="black" stroke="black" points="1965.83,-88.49 1975.74,-84.77 1965.67,-81.49 1965.83,-88.49"/>
<text text-anchor="middle" x="1857" y="-92.8" font-family="Times,serif" font-size="14.00">Call business logic / helpers</text>
</g>
<!-- Servlets&#45;&gt;ServiceLayer -->
<g id="edge13" class="edge">
<title>Servlets&#45;&gt;ServiceLayer</title>
<path fill="none" stroke="black" stroke-width="2" d="M1739.27,-82.2C1745.26,-81.72 1751.22,-81.31 1757,-81 1845.76,-76.23 1868.12,-80.08 1957,-81 1959.88,-81.03 1962.81,-81.06 1965.77,-81.1"/>
<polygon fill="black" stroke="black" stroke-width="2" points="1965.86,-84.6 1975.91,-81.25 1965.96,-77.61 1965.86,-84.6"/>
</g>
<!-- DAO -->
<g id="node8" class="node">
<title>DAO</title>
<polygon fill="#fef5e7" stroke="black" points="2466.5,-312.5 2358.5,-312.5 2358.5,-308.5 2354.5,-308.5 2354.5,-304.5 2358.5,-304.5 2358.5,-237.5 2354.5,-237.5 2354.5,-233.5 2358.5,-233.5 2358.5,-229.5 2466.5,-229.5 2466.5,-312.5"/>
<polyline fill="none" stroke="black" points="2358.5,-308.5 2362.5,-308.5 2362.5,-304.5 2358.5,-304.5 "/>
<polyline fill="none" stroke="black" points="2358.5,-237.5 2362.5,-237.5 2362.5,-233.5 2358.5,-233.5 "/>
<text text-anchor="middle" x="2412.5" y="-297.3" font-family="Times,serif" font-size="14.00">DAO Classes</text>
<text text-anchor="middle" x="2412.5" y="-282.3" font-family="Times,serif" font-size="14.00">UserDao</text>
<text text-anchor="middle" x="2412.5" y="-267.3" font-family="Times,serif" font-size="14.00">ExamDao</text>
<text text-anchor="middle" x="2412.5" y="-252.3" font-family="Times,serif" font-size="14.00">QuestionDao</text>
<text text-anchor="middle" x="2412.5" y="-237.3" font-family="Times,serif" font-size="14.00">ResultDao</text>
</g>
<!-- ServiceLayer&#45;&gt;DAO -->
<g id="edge6" class="edge">
<title>ServiceLayer&#45;&gt;DAO</title>
<path fill="none" stroke="black" d="M2134.02,-124.26C2198.75,-158.49 2289.59,-206.53 2349.46,-238.19"/>
<polygon fill="black" stroke="black" points="2347.95,-241.35 2358.42,-242.93 2351.22,-235.16 2347.95,-241.35"/>
<text text-anchor="middle" x="2218.5" y="-202.8" font-family="Times,serif" font-size="14.00">DAO calls (CRUD)</text>
</g>
<!-- EmailSrv -->
<g id="node11" class="node">
<title>EmailSrv</title>
<ellipse fill="#fdf2e9" stroke="black" cx="2903" cy="-43" rx="120.42" ry="26.74"/>
<text text-anchor="middle" x="2903" y="-46.8" font-family="Times,serif" font-size="14.00">Email Service</text>
<text text-anchor="middle" x="2903" y="-31.8" font-family="Times,serif" font-size="14.00">(Jakarta Mail / SMTP)</text>
</g>
<!-- ServiceLayer&#45;&gt;EmailSrv -->
<g id="edge9" class="edge">
<title>ServiceLayer&#45;&gt;EmailSrv</title>
<path fill="none" stroke="black" d="M2134.13,-71.42C2182.15,-64.88 2244.99,-57.36 2301,-54 2463.37,-44.25 2650.81,-42.29 2772.61,-42.26"/>
<polygon fill="black" stroke="black" points="2772.72,-45.76 2782.72,-42.26 2772.72,-38.76 2772.72,-45.76"/>
<text text-anchor="middle" x="2412.5" y="-57.8" font-family="Times,serif" font-size="14.00">Send verification / notifications</text>
</g>
<!-- ServiceLayer&#45;&gt;EmailSrv -->
<g id="edge15" class="edge">
<title>ServiceLayer&#45;&gt;EmailSrv</title>
<path fill="none" stroke="black" stroke-dasharray="1,5" d="M2134.28,-81.31C2227.23,-79.15 2386.96,-74.96 2524,-69 2617.4,-64.94 2640.74,-63.55 2734,-57 2748.97,-55.95 2764.68,-54.76 2780.24,-53.52"/>
<polygon fill="black" stroke="black" points="2780.74,-56.99 2790.43,-52.71 2780.18,-50.02 2780.74,-56.99"/>
</g>
<!-- Entities -->
<g id="node9" class="node">
<title>Entities</title>
<polygon fill="#fff3e0" stroke="black" points="3010.5,-290 2789.5,-290 2789.5,-252 3016.5,-252 3016.5,-284 3010.5,-290"/>
<polyline fill="none" stroke="black" points="3010.5,-290 3010.5,-284 "/>
<polyline fill="none" stroke="black" points="3016.5,-284 3010.5,-284 "/>
<text text-anchor="middle" x="2903" y="-274.8" font-family="Times,serif" font-size="14.00">Entities / Models</text>
<text text-anchor="middle" x="2903" y="-259.8" font-family="Times,serif" font-size="14.00">User, Exam, Question, Result</text>
</g>
<!-- DAO&#45;&gt;Entities -->
<g id="edge7" class="edge">
<title>DAO&#45;&gt;Entities</title>
<path fill="none" stroke="black" d="M2466.71,-271C2541.18,-271 2678.64,-271 2779.23,-271"/>
<polygon fill="black" stroke="black" points="2779.46,-274.5 2789.46,-271 2779.46,-267.5 2779.46,-274.5"/>
<text text-anchor="middle" x="2638" y="-274.8" font-family="Times,serif" font-size="14.00">Map to Entities / POJOs</text>
</g>
<!-- OracleDB -->
<g id="node10" class="node">
<title>OracleDB</title>
<path fill="#e8f8f5" stroke="black" d="M3054,-173.46C3054,-178.17 2986.32,-182 2903,-182 2819.68,-182 2752,-178.17 2752,-173.46 2752,-173.46 2752,-96.54 2752,-96.54 2752,-91.83 2819.68,-88 2903,-88 2986.32,-88 3054,-91.83 3054,-96.54 3054,-96.54 3054,-173.46 3054,-173.46"/>
<path fill="none" stroke="black" d="M3054,-173.46C3054,-168.74 2986.32,-164.91 2903,-164.91 2819.68,-164.91 2752,-168.74 2752,-173.46"/>
<text text-anchor="middle" x="2903" y="-153.8" font-family="Times,serif" font-size="14.00">Oracle Database</text>
<text text-anchor="middle" x="2903" y="-138.8" font-family="Times,serif" font-size="14.00">(ODBC / JDBC driver)</text>
<text text-anchor="middle" x="2903" y="-123.8" font-family="Times,serif" font-size="14.00">Tables: users, exams, questions, results</text>
<text text-anchor="middle" x="2903" y="-108.8" font-family="Times,serif" font-size="14.00">SQL Scripts</text>
</g>
<!-- DAO&#45;&gt;OracleDB -->
<g id="edge8" class="edge">
<title>DAO&#45;&gt;OracleDB</title>
<path fill="none" stroke="black" d="M2466.56,-261.49C2530.62,-249.47 2641.3,-226.91 2734,-199 2748.97,-194.49 2764.52,-189.3 2779.84,-183.86"/>
<polygon fill="black" stroke="black" points="2781.12,-187.12 2789.35,-180.44 2778.75,-180.53 2781.12,-187.12"/>
<text text-anchor="middle" x="2638" y="-248.8" font-family="Times,serif" font-size="14.00">SQL Queries / Connections</text>
</g>
<!-- DAO&#45;&gt;OracleDB -->
<g id="edge14" class="edge">
<title>DAO&#45;&gt;OracleDB</title>
<path fill="none" stroke="black" stroke-width="2" d="M2466.61,-235.95C2489.06,-222.56 2515.99,-208.3 2542,-199 2578.83,-185.83 2663.62,-170.51 2741.66,-158.16"/>
<polygon fill="black" stroke="black" stroke-width="2" points="2742.3,-161.61 2751.63,-156.6 2741.21,-154.69 2742.3,-161.61"/>
</g>
<!-- SQLScripts -->
<g id="node12" class="node">
<title>SQLScripts</title>
<polygon fill="#fcf3cf" stroke="black" points="2463,-164.5 2356,-164.5 2356,-111.5 2469,-111.5 2469,-158.5 2463,-164.5"/>
<polyline fill="none" stroke="black" points="2463,-164.5 2463,-158.5 "/>
<polyline fill="none" stroke="black" points="2469,-158.5 2463,-158.5 "/>
<text text-anchor="middle" x="2412.5" y="-149.3" font-family="Times,serif" font-size="14.00">DB Scripts</text>
<text text-anchor="middle" x="2412.5" y="-134.3" font-family="Times,serif" font-size="14.00">schema.sql</text>
<text text-anchor="middle" x="2412.5" y="-119.3" font-family="Times,serif" font-size="14.00">seed_data.sql</text>
</g>
<!-- SQLScripts&#45;&gt;OracleDB -->
<g id="edge12" class="edge">
<title>SQLScripts&#45;&gt;OracleDB</title>
<path fill="none" stroke="black" d="M2469.06,-137.66C2534.99,-137.25 2647.82,-136.56 2741.76,-135.98"/>
<polygon fill="black" stroke="black" points="2741.97,-139.48 2751.95,-135.92 2741.93,-132.48 2741.97,-139.48"/>
<text text-anchor="middle" x="2638" y="-140.8" font-family="Times,serif" font-size="14.00">Run to create schema</text>
</g>
<!-- Legend -->
<g id="node13" class="node">
<title>Legend</title>
<polygon fill="#f2f3f4" stroke="black" points="323,-394.5 0,-394.5 0,-311.5 329,-311.5 329,-388.5 323,-394.5"/>
<polyline fill="none" stroke="black" points="323,-394.5 323,-388.5 "/>
<polyline fill="none" stroke="black" points="329,-388.5 323,-388.5 "/>
<text text-anchor="middle" x="164.5" y="-379.3" font-family="Times,serif" font-size="14.00">Notes:</text>
<text text-anchor="middle" x="164.5" y="-364.3" font-family="Times,serif" font-size="14.00">&#45; Filters protect endpoints</text>
<text text-anchor="middle" x="164.5" y="-349.3" font-family="Times,serif" font-size="14.00">&#45; Service layer handles email &amp; connections</text>
<text text-anchor="middle" x="164.5" y="-334.3" font-family="Times,serif" font-size="14.00">&#45; DAO maps to DB tables</text>
<text text-anchor="middle" x="164.5" y="-319.3" font-family="Times,serif" font-size="14.00">&#45; Use ODBC/JDBC driver for Oracle</text>
</g>
</g>
</svg>
